2014004_C5_01_grf
version=1
nRows=30
nColumns=19
inDegrees=no
endheader
time	ground_force_1_vx	ground_force_1_vy	ground_force_1_vz	ground_force_1_px	ground_force_1_py	ground_force_1_pz	ground_force_1_mx	ground_force_1_my	ground_force_1_mz	ground_force_2_vx	ground_force_2_vy	ground_force_2_vz	ground_force_2_px	ground_force_2_py	ground_force_2_pz	ground_force_2_mx	ground_force_2_my	ground_force_2_mz
      0.35700000	    -10.96239127	    509.62755829	    -27.40942240	      0.27164001	     -0.00200000	     -0.12420898	      0.00000000	      1.57362349	      0.00000000	      0.00000000	      0.00000000	      0.00000000	      0.00000000	      0.00000000	      0.00000000	      0.00000000	      0.00000000	      0.00000000
      0.35800000	    -10.43211203	    511.35503501	    -27.39842236	      0.27193128	     -0.00200000	     -0.12428907	      0.00000000	      1.60408932	      0.00000000	      0.00000000	      0.00000000	      0.00000000	      0.00000000	      0.00000000	      0.00000000	      0.00000000	      0.00000000	      0.00000000
      0.35900000	     -9.89293074	    513.13240081	    -27.39118934	      0.27222128	     -0.00200000	     -0.12436955	      0.00000000	      1.63484964	      0.00000000	      0.00000000	      0.00000000	      0.00000000	      0.00000000	      0.00000000	      0.00000000	      0.00000000	      0.00000000	      0.00000000
      0.36000000	     -9.34626907	    514.94939625	    -27.38706172	      0.27251016	     -0.00200000	     -0.12445030	      0.00000000	      1.66582229	      0.00000000	      0.00000000	      0.00000000	      0.00000000	      0.00000000	      0.00000000	      0.00000000	      0.00000000	      0.00000000	      0.00000000
      0.36100000	     -8.78980383	    516.81564376	    -27.38692760	      0.27279749	     -0.00200000	     -0.12453136	      0.00000000	      1.69703110	      0.00000000	      0.00000000	      0.00000000	      0.00000000	      0.00000000	      0.00000000	      0.00000000	      0.00000000	      0.00000000	      0.00000000
      0.36200000	     -8.22513644	    518.72101799	    -27.39008069	      0.27308345	     -0.00200000	     -0.12461261	      0.00000000	      1.72840605	      0.00000000	      0.00000000	      0.00000000	      0.00000000	      0.00000000	      0.00000000	      0.00000000	      0.00000000	      0.00000000	      0.00000000
      0.36300000	     -7.64976814	    520.67500725	    -27.39745677	      0.27336755	     -0.00200000	     -0.12469407	      0.00000000	      1.75995939	      0.00000000	      0.00000000	      0.00000000	      0.00000000	      0.00000000	      0.00000000	      0.00000000	      0.00000000	      0.00000000	      0.00000000
      0.36400000	     -7.06548197	    522.66758680	    -27.40828991	      0.27365004	     -0.00200000	     -0.12477564	      0.00000000	      1.79163291	      0.00000000	      0.00000000	      0.00000000	      0.00000000	      0.00000000	      0.00000000	      0.00000000	      0.00000000	      0.00000000	      0.00000000
      0.36500000	     -6.46961108	    524.70817789	    -27.42355615	      0.27393035	     -0.00200000	     -0.12485735	      0.00000000	      1.82342856	      0.00000000	      0.00000000	      0.00000000	      0.00000000	      0.00000000	      0.00000000	      0.00000000	      0.00000000	      0.00000000	      0.00000000
      0.36600000	     -5.86413592	    526.78688988	    -27.44244635	      0.27420879	     -0.00200000	     -0.12493911	      0.00000000	      1.85530021	      0.00000000	      0.00000000	      0.00000000	      0.00000000	      0.00000000	      0.00000000	      0.00000000	      0.00000000	      0.00000000	      0.00000000
      0.36700000	     -5.24624810	    528.91299315	    -27.46597081	      0.27448473	     -0.00200000	     -0.12502086	      0.00000000	      1.88723756	      0.00000000	      0.00000000	      0.00000000	      0.00000000	      0.00000000	      0.00000000	      0.00000000	      0.00000000	      0.00000000	      0.00000000
      0.36800000	     -4.61811153	    531.07678145	    -27.49327719	      0.27475853	     -0.00200000	     -0.12510254	      0.00000000	      1.91920413	      0.00000000	      0.00000000	      0.00000000	      0.00000000	      0.00000000	      0.00000000	      0.00000000	      0.00000000	      0.00000000	      0.00000000
      0.36900000	     -3.97677487	    533.28749165	    -27.52540261	      0.27502951	     -0.00200000	     -0.12518407	      0.00000000	      1.95118006	      0.00000000	      0.00000000	      0.00000000	      0.00000000	      0.00000000	      0.00000000	      0.00000000	      0.00000000	      0.00000000	      0.00000000
      0.37000000	     -3.32457363	    535.53551808	    -27.56145298	      0.27529812	     -0.00200000	     -0.12526542	      0.00000000	      1.98314335	      0.00000000	      0.00000000	      0.00000000	      0.00000000	      0.00000000	      0.00000000	      0.00000000	      0.00000000	      0.00000000	      0.00000000
      0.37100000	     -2.65842094	    537.83004731	    -27.60249078	      0.27556361	     -0.00200000	     -0.12534645	      0.00000000	      2.01506825	      0.00000000	      0.00000000	      0.00000000	      0.00000000	      0.00000000	      0.00000000	      0.00000000	      0.00000000	      0.00000000	      0.00000000
      0.37200000	     -1.98082766	    540.16165808	    -27.64758468	      0.27582648	     -0.00200000	     -0.12542717	      0.00000000	      2.04694528	      0.00000000	      0.00000000	      0.00000000	      0.00000000	      0.00000000	      0.00000000	      0.00000000	      0.00000000	      0.00000000	      0.00000000
      0.37300000	     -1.28861691	    542.53958724	    -27.69782543	      0.27608591	     -0.00200000	     -0.12550745	      0.00000000	      2.07874108	      0.00000000	      0.00000000	      0.00000000	      0.00000000	      0.00000000	      0.00000000	      0.00000000	      0.00000000	      0.00000000	      0.00000000
      0.37400000	     -0.58448326	    544.95449737	    -27.75223553	      0.27634245	     -0.00200000	     -0.12558732	      0.00000000	      2.11045545	      0.00000000	      0.00000000	      0.00000000	      0.00000000	      0.00000000	      0.00000000	      0.00000000	      0.00000000	      0.00000000	      0.00000000
      0.37500000	      0.13480258	    547.41574265	    -27.81192213	      0.27659521	     -0.00200000	     -0.12566662	      0.00000000	      2.14204657	      0.00000000	      0.00000000	      0.00000000	      0.00000000	      0.00000000	      0.00000000	      0.00000000	      0.00000000	      0.00000000	      0.00000000
      0.37600000	      0.86637959	    549.91403595	    -27.87586749	      0.27684482	     -0.00200000	     -0.12574541	      0.00000000	      2.17352222	      0.00000000	      0.00000000	      0.00000000	      0.00000000	      0.00000000	      0.00000000	      0.00000000	      0.00000000	      0.00000000	      0.00000000
      0.37700000	      1.61349261	    552.45869793	    -27.94518024	      0.27709033	     -0.00200000	     -0.12582353	      0.00000000	      2.20483462	      0.00000000	      0.00000000	      0.00000000	      0.00000000	      0.00000000	      0.00000000	      0.00000000	      0.00000000	      0.00000000	      0.00000000
      0.37800000	      2.37314915	    555.04040793	    -28.01880836	      0.27733248	     -0.00200000	     -0.12590107	      0.00000000	      2.23600425	      0.00000000	      0.00000000	      0.00000000	      0.00000000	      0.00000000	      0.00000000	      0.00000000	      0.00000000	      0.00000000	      0.00000000
      0.37900000	      3.14859720	    557.66852014	    -28.09784412	      0.27757028	     -0.00200000	     -0.12597785	      0.00000000	      2.26698253	      0.00000000	      0.00000000	      0.00000000	      0.00000000	      0.00000000	      0.00000000	      0.00000000	      0.00000000	      0.00000000	      0.00000000
      0.38000000	      3.93674476	    560.33374742	    -28.18120122	      0.27780452	     -0.00200000	     -0.12605400	      0.00000000	      2.29779865	      0.00000000	      0.00000000	      0.00000000	      0.00000000	      0.00000000	      0.00000000	      0.00000000	      0.00000000	      0.00000000	      0.00000000
      0.38100000	      4.74081445	    563.04546073	    -28.26993912	      0.27803420	     -0.00200000	     -0.12612936	      0.00000000	      2.32840086	     -0.00000000	      0.00000000	      0.00000000	      0.00000000	      0.00000000	      0.00000000	      0.00000000	      0.00000000	      0.00000000	      0.00000000
      0.38200000	      5.55764046	    565.79435617	    -28.36294770	      0.27826018	     -0.00200000	     -0.12620409	      0.00000000	      2.35882259	      0.00000000	      0.00000000	      0.00000000	      0.00000000	      0.00000000	      0.00000000	      0.00000000	      0.00000000	      0.00000000	      0.00000000
      0.38300000	      6.39040698	    568.58968735	    -28.46123874	      0.27848144	     -0.00200000	     -0.12627801	      0.00000000	      2.38900864	     -0.00000000	      0.00000000	      0.00000000	      0.00000000	      0.00000000	      0.00000000	      0.00000000	      0.00000000	      0.00000000	      0.00000000
      0.38400000	      7.23590609	    571.42216712	    -28.56370211	      0.27869890	     -0.00200000	     -0.12635129	      0.00000000	      2.41899744	      0.00000000	      0.00000000	      0.00000000	      0.00000000	      0.00000000	      0.00000000	      0.00000000	      0.00000000	      0.00000000	      0.00000000
      0.38500000	      8.09727097	    574.30098206	    -28.67128998	      0.27891153	     -0.00200000	     -0.12642377	      0.00000000	      2.44873054	     -0.00000000	      0.00000000	      0.00000000	      0.00000000	      0.00000000	      0.00000000	      0.00000000	      0.00000000	      0.00000000	      0.00000000
      0.38600000	      8.97126831	    577.21687853	    -28.78289223	      0.27912026	     -0.00200000	     -0.12649560	      0.00000000	      2.47825066	      0.00000000	      0.00000000	      0.00000000	      0.00000000	      0.00000000	      0.00000000	      0.00000000	      0.00000000	      0.00000000	      0.00000000
